# xmcd
# 
# Track frame offsets:
#     150
#     15697
#     30946
#     56133
# 
# Disc length: 1006
# 
# Revision: 0
# Processed by: cddbd v1.5.2PL0 Copyright (c) Steve Scherf et al.
# Submitted via: fre:ac v1.0.17
# 
DISCID=2703ec04
DTITLE=Pohlmann - Wenn es scheint, dass nichts gelingt
DYEAR=2007
DGENRE=Deutschpop
TTITLE0=Wenn es scheint, dass nichts gelingt
TTITLE1=Mädchen und Rabauken
TTITLE2=Sternschnuppe
TTITLE3=Zwischen Heimweh und Fernsucht (Video)
EXTD=
EXTT0=
EXTT1=
EXTT2=
EXTT3=
PLAYORDER=
